<svg xmlns="http://www.w3.org/2000/svg" xmlns:xlink="http://www.w3.org/1999/xlink" id="Layer_1" x="0" y="0" version="1.1" viewBox="0 0 100 100" style="enable-background:new 0 0 100 100" xml:space="preserve"><style type="text/css">.st0{fill:#ffffa0}.st31{fill:#17154d}</style><circle cx="50.6" cy="50.6" r="43.9" class="st0"/><g id="Internet-Networks-Servers__x2F__Worldwide-Web__x2F__network-user_5_"><g id="Group_26_5_"><g id="network-user_5_"><path d="M43.4,89.2c-0.1,0-0.3,0-0.4,0c-19.6-4-33.1-22.1-31.2-42.1c1.8-20,18.3-35.3,38.3-35.7 c20-0.4,37.1,14.2,39.8,34.1c0.2,1.2-0.7,2.3-1.9,2.5c-1.2,0.2-2.3-0.7-2.5-1.9C83.2,28.4,68,15.4,50.2,15.8 c-17.8,0.4-32.4,14-34,31.7c-1.6,17.7,10.3,33.8,27.7,37.4c1.2,0.2,2,1.4,1.7,2.6C45.4,88.5,44.5,89.2,43.4,89.2z" class="st31"/><path d="M42,88.9c-0.7,0-1.4-0.3-1.8-1c-5.5-8-8.8-22-8.8-37.3s3.3-29.2,8.8-37.3c0.7-1,2.1-1.3,3.1-0.6 c1,0.7,1.3,2.1,0.6,3.1c-4.9,7.2-8,20.6-8,34.8c0,14.2,3.1,27.5,8,34.8c0.7,1,0.4,2.4-0.6,3.1C42.8,88.8,42.4,88.9,42,88.9z" class="st31"/><path d="M53.4,50.4H13.9c-1.2,0-2.2-1-2.2-2.2s1-2.2,2.2-2.2h39.5c1.2,0,2.2,1,2.2,2.2S54.6,50.4,53.4,50.4z" class="st31"/><path d="M80.6,30.6H21.2c-1.2,0-2.2-1-2.2-2.2c0-1.2,1-2.2,2.2-2.2h59.4c1.2,0,2.2,1,2.2,2.2 C82.8,29.6,81.8,30.6,80.6,30.6z" class="st31"/><path d="M46,70.2H18.1c-1.2,0-2.2-1-2.2-2.2s1-2.2,2.2-2.2H46c1.2,0,2.2,1,2.2,2.2S47.2,70.2,46,70.2z" class="st31"/><path d="M67.1,38c-1.1,0-2.1-0.8-2.2-1.9c-0.9-7.2-3.2-14.1-7-20.3c-0.6-1-0.3-2.4,0.8-3c1-0.6,2.4-0.3,3,0.8 c4.1,6.8,6.6,14.2,7.6,22.1c0.1,1.2-0.7,2.3-1.9,2.5C67.3,38,67.2,38,67.1,38z" class="st31"/><path d="M70.7,65.2c-6,0-10.9-4.9-10.9-10.9s4.9-10.9,10.9-10.9s10.9,4.9,10.9,10.9S76.7,65.2,70.7,65.2z M70.7,47.9c-3.6,0-6.5,2.9-6.5,6.5c0,3.6,2.9,6.5,6.5,6.5s6.5-2.9,6.5-6.5C77.2,50.8,74.3,47.9,70.7,47.9z" class="st31"/><path d="M88,90H53.4c-1.2,0-2.2-1-2.2-2.2v-4.9c0-10.8,8.8-19.5,19.5-19.5c5.2,0,10.1,2,13.8,5.7 c3.7,3.7,5.7,8.6,5.7,13.8v4.9C90.2,89,89.2,90,88,90z M55.6,85.6h30.2v-2.7c0-4-1.6-7.8-4.4-10.7c-2.9-2.9-6.6-4.4-10.7-4.4 c-8.3,0-15.1,6.8-15.1,15.1V85.6z" class="st31"/></g></g></g></svg>