<svg xmlns="http://www.w3.org/2000/svg" xmlns:xlink="http://www.w3.org/1999/xlink" id="Layer_1" x="0" y="0" version="1.1" viewBox="0 0 100 100" style="enable-background:new 0 0 100 100" xml:space="preserve"><style type="text/css">.st0{fill:#ffffa0}.st24,.st28{fill:none;stroke:#000050;stroke-width:4;stroke-linecap:round;stroke-linejoin:round}.st28{stroke:#000;stroke-width:1.5}.st31{fill:#17154d}.st32{fill:#000050}</style><circle cx="50.4" cy="50" r="44.3" class="st0"/><path d="M19.1,58c-0.9,0-1.8-0.6-2.1-1.6L5,16.2c-0.4-1.2,0.3-2.4,1.5-2.7c1.2-0.4,2.4,0.3,2.7,1.5l12,40.2	c0.4,1.2-0.3,2.4-1.5,2.7C19.6,58,19.4,58,19.1,58z" class="st31"/><g><circle cx="20.2" cy="70.1" r="2.4" class="st32"/></g><line x1="28.5" x2="72.3" y1="69.9" y2="69.9" class="st28"/><path d="M72.3,72.1H28.5c-1.2,0-2.2-1-2.2-2.2s1-2.2,2.2-2.2h43.8c1.2,0,2.2,1,2.2,2.2S73.5,72.1,72.3,72.1z" class="st31"/><g id="Internet-Networks-Servers__x2F__Wifi__x2F__wifi-settings_00000098212217885943341240000017377954617349897614_"><g id="Group_48_00000112590433169860844650000008294961708377607608_"><g id="wifi-settings_00000110446713740150243740000013244429911561451705_"><path id="Oval_30_00000005266066536362648210000015657503119005111961_" d="M68.4,51c2,0,3.6-1.6,3.6-3.6 s-1.6-3.6-3.6-3.6c-2,0-3.6,1.6-3.6,3.6S66.4,51,68.4,51z" class="st24"/><path id="Shape_321_00000100347541520326471200000000616482612641683385_" d="M71.5,33.5l1.1,3.5 c0.4,1.2,1.6,1.9,2.8,1.6l3.5-0.8c1.4-0.3,2.8,0.3,3.5,1.5c0.7,1.2,0.5,2.7-0.4,3.8l-2.5,2.7c-0.9,0.9-0.9,2.3,0,3.3l2.5,2.7 c1,1,1.1,2.6,0.4,3.8c-0.7,1.2-2.1,1.8-3.5,1.5l-3.5-0.8c-1.2-0.3-2.4,0.4-2.8,1.6l-1.1,3.5c-0.4,1.3-1.6,2.3-3,2.3 c-1.4,0-2.6-0.9-3-2.3l-1.1-3.5c-0.4-1.2-1.6-1.9-2.8-1.6L58,57c-1.4,0.3-2.8-0.3-3.5-1.5c-0.7-1.2-0.5-2.8,0.4-3.8l2.5-2.7 c0.9-0.9,0.9-2.3,0-3.3l-2.5-2.7c-1-1-1.1-2.6-0.4-3.8c0.7-1.2,2.1-1.8,3.5-1.5l3.5,0.8c1.2,0.3,2.4-0.4,2.8-1.6l1.1-3.5 c0.4-1.3,1.6-2.3,3.1-2.3C69.8,31.2,71.1,32.2,71.5,33.5z" class="st24"/></g></g></g><path d="M28.5,34.9c8.4-8.4,20.5-11.1,31.2-8" class="st24"/><path d="M34.6,41c4.4-4.4,10-6.6,15.7-6.7" class="st24"/><path d="M22.4,28.8c15.7-15.7,41.2-15.7,57,0" class="st24"/><line x1="93.7" x2="88.4" y1="15.4" y2="33.2" class="st24"/><path d="M89.2,57.7c3.2,1.3,5.5,4.4,5.5,8.1v8.7c0,4.8-3.9,8.8-8.8,8.8H14.8c-4.8,0-8.8-3.9-8.8-8.8v-8.7	c0-4.8,3.9-8.8,8.8-8.8h32.3" class="st24"/></svg>