<svg xmlns="http://www.w3.org/2000/svg" xmlns:xlink="http://www.w3.org/1999/xlink" id="Layer_1" x="0" y="0" version="1.1" viewBox="0 0 100 100" style="enable-background:new 0 0 100 100" xml:space="preserve"><style type="text/css">.st0{fill:#ffffa0}.st29{fill:none;stroke:#000;stroke-width:1.5;stroke-linecap:round;stroke-linejoin:round}.st31{fill:#17154d}.st32{fill:#000050}</style><circle cx="50" cy="50" r="44.3" class="st0"/><path d="M85.5,85.4H14.5c-6.1,0-11.1-5-11.1-11.1v-8.4c0-6.1,5-11.1,11.1-11.1h70.9c6.1,0,11.1,5,11.1,11.1v8.4	C96.5,80.4,91.6,85.4,85.5,85.4z M14.5,59.2c-3.7,0-6.7,3-6.7,6.7v8.4c0,3.7,3,6.7,6.7,6.7h70.9c3.7,0,6.7-3,6.7-6.7v-8.4	c0-3.7-3-6.7-6.7-6.7H14.5z" class="st31"/><path d="M18.7,58c-0.9,0-1.8-0.6-2.1-1.6l-12-40.2c-0.4-1.2,0.3-2.4,1.5-2.7c1.2-0.4,2.4,0.3,2.7,1.5l12,40.2	c0.4,1.2-0.3,2.4-1.5,2.7C19.2,58,19,58,18.7,58z" class="st31"/><path d="M81.3,58c-0.2,0-0.4,0-0.6-0.1c-1.2-0.4-1.8-1.6-1.5-2.7l12-40.2c0.4-1.2,1.6-1.8,2.7-1.5	c1.2,0.4,1.8,1.6,1.5,2.7l-12,40.2C83.1,57.4,82.2,58,81.3,58z" class="st31"/><g><circle cx="19.8" cy="70.1" r="2.4" class="st32"/></g><line x1="28.1" x2="71.9" y1="69.9" y2="69.9" class="st29"/><path d="M71.9,72.1H28.1c-1.2,0-2.2-1-2.2-2.2s1-2.2,2.2-2.2h43.8c1.2,0,2.2,1,2.2,2.2S73.1,72.1,71.9,72.1z" class="st31"/><path d="M73.3,37.6c-0.6,0-1.1-0.2-1.6-0.6c-11.8-11.8-31-11.8-42.8,0c-0.9,0.9-2.3,0.9-3.1,0c-0.9-0.9-0.9-2.3,0-3.1	c13.5-13.5,35.5-13.5,49.1,0c0.9,0.9,0.9,2.3,0,3.1C74.4,37.4,73.8,37.6,73.3,37.6z" class="st31"/><path d="M67,43.9c-0.6,0-1.1-0.2-1.6-0.6c-4-4-9.4-6.3-15.1-6.3c-5.7,0-11.1,2.2-15.1,6.3c-0.9,0.9-2.3,0.9-3.1,0	c-0.9-0.9-0.9-2.3,0-3.1c4.9-4.9,11.4-7.6,18.3-7.6c6.9,0,13.4,2.7,18.3,7.6c0.9,0.9,0.9,2.3,0,3.1C68.1,43.6,67.6,43.9,67,43.9z" class="st31"/><path d="M21.1,31.3c-0.6,0-1.1-0.2-1.6-0.6c-0.9-0.9-0.9-2.3,0-3.1c17-17,44.6-17,61.6,0c0.9,0.9,0.9,2.3,0,3.1	s-2.3,0.9-3.1,0c-15.3-15.3-40.1-15.3-55.3,0C22.2,31.1,21.6,31.3,21.1,31.3z" class="st31"/></svg>